HIERARCHY
ROOT hip
{
  OFFSET 0 0 0
  CHANNELS 6 Xposition Yposition Zposition Zrotation Yrotation Xrotation
  JOINT abdomen
  {
    OFFSET 0 20.6881 -0.73152
    CHANNELS 3 Zrotation Xrotation Yrotation
    JOINT chest
    {
      OFFSET 0 11.7043 -0.48768
      CHANNELS 3 Zrotation Xrotation Yrotation
      JOINT neck
      {
        OFFSET 0 22.1894 -2.19456
        CHANNELS 3 Zrotation Xrotation Yrotation
        JOINT head
        {
          OFFSET -0.24384 7.07133 1.2192
          CHANNELS 3 Zrotation Xrotation Yrotation
          JOINT leftEye
          {
            OFFSET 4.14528 8.04674 8.04672
            CHANNELS 3 Zrotation Xrotation Yrotation
            End Site
            {
              OFFSET 1 0 0
            }
          }
          JOINT rightEye
          {
            OFFSET -3.6576 8.04674 8.04672
            CHANNELS 3 Zrotation Xrotation Yrotation
            End Site
            {
              OFFSET 1 0 0
            }
          }
        }
      }
      JOINT rCollar
      {
        OFFSET -2.68224 19.2634 -4.8768
        CHANNELS 3 Zrotation Xrotation Yrotation
        JOINT rShldr
        {
          OFFSET -8.77824 -1.95073 1.46304
          CHANNELS 3 Zrotation Xrotation Yrotation
          JOINT rForeArm
          {
            OFFSET -28.1742 -1.7115 0.48768
            CHANNELS 3 Zrotation Xrotation Yrotation
            JOINT rHand
            {
              OFFSET -22.5879 0.773209 7.07136
              CHANNELS 3 Zrotation Xrotation Yrotation
              JOINT rThumb1
              {
                OFFSET -1.2192 -0.487915 3.41376
                CHANNELS 3 Zrotation Xrotation Yrotation
                JOINT rThumb2
                {
                  OFFSET -3.37035 -0.52449 3.41376
                  CHANNELS 3 Zrotation Xrotation Yrotation
                  End Site
                  {
                    OFFSET -1.78271 -1.18214 1.43049
                  }
                }
              }
              JOINT rIndex1
              {
                OFFSET -7.75947 0.938293 5.60832
                CHANNELS 3 Zrotation Xrotation Yrotation
                JOINT rIndex2
                {
                  OFFSET -2.54057 -0.884171 1.56538
                  CHANNELS 3 Zrotation Xrotation Yrotation
                  End Site
                  {
                    OFFSET -1.62519 -0.234802 1.16502
                  }
                }
              }
              JOINT rMid1
              {
                OFFSET -8.24714 1.18213 3.41376
                CHANNELS 3 Zrotation Xrotation Yrotation
                JOINT rMid2
                {
                  OFFSET -3.10165 -0.590103 1.0647
                  CHANNELS 3 Zrotation Xrotation Yrotation
                  End Site
                  {
                    OFFSET -2.48547 -0.328903 0.83742
                  }
                }
              }
              JOINT rRing1
              {
                OFFSET -8.82822 0.546677 1.51678
                CHANNELS 3 Zrotation Xrotation Yrotation
                JOINT rRing2
                {
                  OFFSET -2.60934 -0.819778 -0.0198488
                  CHANNELS 3 Zrotation Xrotation Yrotation
                  End Site
                  {
                    OFFSET -2.33842 -0.294052 0.168128
                  }
                }
              }
              JOINT rPinky1
              {
                OFFSET -8.27202 -0.0477905 -0.4584
                CHANNELS 3 Zrotation Xrotation Yrotation
                JOINT rPinky2
                {
                  OFFSET -1.82734 -0.647385 -0.700984
                  CHANNELS 3 Zrotation Xrotation Yrotation
                  End Site
                  {
                    OFFSET -1.69225 -0.51767 -0.607171
                  }
                }
              }
            }
          }
        }
      }
      JOINT lCollar
      {
        OFFSET 2.68224 19.2634 -4.8768
        CHANNELS 3 Zrotation Xrotation Yrotation
        JOINT lShldr
        {
          OFFSET 8.77824 -1.95073 1.46304
          CHANNELS 3 Zrotation Xrotation Yrotation
          JOINT lForeArm
          {
            OFFSET 28.1742 -1.7115 0.48768
            CHANNELS 3 Zrotation Xrotation Yrotation
            JOINT lHand
            {
              OFFSET 22.5879 0.773209 7.07136
              CHANNELS 3 Zrotation Xrotation Yrotation
              JOINT lThumb1
              {
                OFFSET 1.2192 -0.487915 3.41376
                CHANNELS 3 Zrotation Xrotation Yrotation
                JOINT lThumb2
                {
                  OFFSET 3.37035 -0.52449 3.41376
                  CHANNELS 3 Zrotation Xrotation Yrotation
                  End Site
                  {
                    OFFSET 1.78271 -1.18214 1.43049
                  }
                }
              }
              JOINT lIndex1
              {
                OFFSET 7.75947 0.938293 5.60832
                CHANNELS 3 Zrotation Xrotation Yrotation
                JOINT lIndex2
                {
                  OFFSET 2.54057 -0.884171 1.56538
                  CHANNELS 3 Zrotation Xrotation Yrotation
                  End Site
                  {
                    OFFSET 1.62519 -0.234802 1.16502
                  }
                }
              }
              JOINT lMid1
              {
                OFFSET 8.24714 1.18213 3.41376
                CHANNELS 3 Zrotation Xrotation Yrotation
                JOINT lMid2
                {
                  OFFSET 3.10165 -0.590103 1.0647
                  CHANNELS 3 Zrotation Xrotation Yrotation
                  End Site
                  {
                    OFFSET 2.48547 -0.328903 0.83742
                  }
                }
              }
              JOINT lRing1
              {
                OFFSET 8.82822 0.546677 1.51678
                CHANNELS 3 Zrotation Xrotation Yrotation
                JOINT lRing2
                {
                  OFFSET 2.60934 -0.819778 -0.0198488
                  CHANNELS 3 Zrotation Xrotation Yrotation
                  End Site
                  {
                    OFFSET 2.33842 -0.294052 0.168128
                  }
                }
              }
              JOINT lPinky1
              {
                OFFSET 8.27202 -0.0477905 -0.4584
                CHANNELS 3 Zrotation Xrotation Yrotation
                JOINT lPinky2
                {
                  OFFSET 1.82734 -0.647385 -0.700984
                  CHANNELS 3 Zrotation Xrotation Yrotation
                  End Site
                  {
                    OFFSET 1.69225 -0.51767 -0.607171
                  }
                }
              }
            }
          }
        }
      }
    }
  }
  JOINT rButtock
  {
    OFFSET -8.77824 4.35084 1.2192
    CHANNELS 3 Zrotation Xrotation Yrotation
    JOINT rThigh
    {
      OFFSET 0 -1.70687 -2.19456
      CHANNELS 3 Zrotation Xrotation Yrotation
      JOINT rShin
      {
        OFFSET 0 -36.8199 0.73152
        CHANNELS 3 Zrotation Xrotation Yrotation
        JOINT rFoot
        {
          OFFSET 0.73152 -45.1104 -5.12064
          CHANNELS 3 Zrotation Xrotation Yrotation
          End Site
          {
            OFFSET -1.1221 -3.69964 12.103
          }
        }
      }
    }
  }
  JOINT lButtock
  {
    OFFSET 8.77824 4.35084 1.2192
    CHANNELS 3 Zrotation Xrotation Yrotation
    JOINT lThigh
    {
      OFFSET 0 -1.70687 -2.19456
      CHANNELS 3 Zrotation Xrotation Yrotation
      JOINT lShin
      {
        OFFSET 0 -36.8199 0.73152
        CHANNELS 3 Zrotation Xrotation Yrotation
        JOINT lFoot
        {
          OFFSET -0.73152 -45.1104 -5.12064
          CHANNELS 3 Zrotation Xrotation Yrotation
          End Site
          {
            OFFSET 1.1221 -3.69964 12.103
          }
        }
      }
    }
  }
}
MOTION
Frames:	4
Frame Time:	0.00833333
188.957 84.7658 43.0812 0.0 0.0 0.0 -0.385198 -0.00168813 -0.0109959 -0.106234 -0.00256711 -0.0184049 1.08858e-14 7.95139e-16 1.24241e-17 3.27746e-14 9.54166e-15 1.55301e-18 -0.0 0.0 0.0 -0.0 0.0 0.0 5.51509e-15 -7.37677e-18 9.93923e-17 1.16497e-13 -2.04997e-16 1.39149e-15 1.97175e-12 -5.96155e-13 -3.49861e-14 2.25743e-11 5.66611e-13 6.36111e-14 5.32442e-11 -6.3185e-14 8.26944e-14 9.19431e-11 -1.04958e-13 1.41535e-13 5.32477e-11 -6.2816e-14 7.63333e-14 7.73091 5.47488 0.417314 5.32421e-11 -6.35117e-14 8.5875e-14 2.90554 0.965183 0.102902 5.32469e-11 -6.35117e-14 8.5875e-14 10.2786 0.731801 0.0259123 5.32429e-11 -6.16232e-14 9.85972e-14 2.22167 -0.733487 -0.20892 5.41843e-15 -6.98852e-18 -9.93923e-17 1.12568e-13 -3.85145e-16 -3.97569e-16 1.97075e-12 5.8562e-13 -9.54166e-15 2.25739e-11 -6.12431e-13 6.36111e-14 5.32468e-11 -5.4437e-14 9.54166e-14 9.19618e-11 -9.54166e-14 1.54257e-13 5.32433e-11 -5.48646e-14 1.08139e-13 -7.73091 5.47488 -0.417314 5.32477e-11 -5.50634e-14 8.26944e-14 -2.90554 0.965183 -0.102902 5.32433e-11 -5.43676e-14 8.98507e-14 -10.2786 0.731801 -0.0259123 5.32532e-11 -5.04913e-14 7.95139e-14 -2.22167 -0.733487 0.20892 -2.03217e-16 0.0 -3.88251e-19 0.221669 -2.58356 -0.0280813 -0.00748972 -0.872634 -0.0651413 -0.513131 3.45577 0.12935 2.03217e-16 0.0 3.88251e-19 -0.807756 -4.07085 0.0653906 0.00325562 1.82139 0.0244307 0.517691 2.24911 -0.105177
184.152 82.749 36.8637 -73.2042 -88.6139 78.391 -0.83491 -0.557603 0.274044 -0.195236 -0.560156 0.050528 -1.79012 1.07405 -0.928525 1.40409 -4.30581 -1.28267 -0.0 0.0 0.0 -0.0 0.0 0.0 5.68936e-14 -3.13742e-13 -5.4479e-14 13.5265 2.87258 11.7372 -15.9066 -13.2359 14.7555 0.04677 -4.80255 -0.666432 8.8108e-10 -7.00638e-11 2.89581e-10 1.5153e-09 -1.21035e-10 5.1167e-10 8.81086e-10 -7.00635e-11 2.89573e-10 7.73091 5.47488 0.417314 8.81079e-10 -7.00651e-11 2.89585e-10 2.90554 0.965183 0.102902 8.81083e-10 -7.00659e-11 2.89584e-10 10.2786 0.731801 0.0259123 8.81076e-10 -7.00642e-11 2.89595e-10 2.22167 -0.733487 -0.20892 5.68352e-14 -3.13742e-13 -5.47539e-14 -18.5279 7.81536 -11.71 11.2502 -8.14863 -13.0508 -0.0337318 -4.07896 0.568038 -6.51423e-10 3.27502e-10 6.63451e-10 -1.13307e-09 5.67095e-10 1.14219e-09 -6.51426e-10 3.27502e-10 6.63462e-10 -7.73091 5.47488 -0.417314 -6.51422e-10 3.27502e-10 6.63442e-10 -2.90554 0.965183 -0.102902 -6.51426e-10 3.27502e-10 6.63447e-10 -10.2786 0.731801 -0.0259123 -6.51416e-10 3.27505e-10 6.63437e-10 -2.22167 -0.733487 0.20892 -2.03217e-16 0.0 -3.88251e-19 -1.05569 -12.4162 -3.19579 0.0172988 13.0509 0.139453 -0.959539 2.08207 -5.12964 2.03217e-16 0.0 3.88251e-19 -0.980382 -6.31212 -1.89069 -0.038483 6.89095 -0.104837 0.528723 -1.05683 0.318054
183.514 82.7758 36.8432 -73.9025 -88.5928 79.1428 -1.31462 -1.14633 0.584371 -0.291399 -1.1494 0.125483 -3.65212 2.21232 -1.91416 2.68197 -8.85097 -2.66685 -0.0 0.0 0.0 -0.0 0.0 0.0 1.1376e-13 -6.58555e-13 -1.14789e-13 26.6005 5.52428 24.2292 -25.0527 -24.1953 32.7048 -0.0270467 -9.89457 -1.38911 1.81915e-09 -1.47217e-10 6.04567e-10 3.12841e-09 -2.54311e-10 1.06867e-09 1.81915e-09 -1.47217e-10 6.04557e-10 7.73091 5.47488 0.417314 1.81915e-09 -1.4722e-10 6.0457e-10 2.90554 0.965183 0.102902 1.81915e-09 -1.47222e-10 6.04569e-10 10.2786 0.731801 0.0259123 1.81914e-09 -1.4722e-10 6.04579e-10 2.22167 -0.733487 -0.20892 1.13744e-13 -6.58555e-13 -1.15149e-13 -34.6171 14.9613 -24.778 19.1242 -15.3282 -27.6287 0.0195331 -8.40803 1.18077 -1.45249e-09 7.05796e-10 1.42649e-09 -2.52582e-09 1.22217e-09 2.45595e-09 -1.4525e-09 7.05796e-10 1.4265e-09 -7.73091 5.47488 -0.417314 -1.45249e-09 7.05796e-10 1.42649e-09 -2.90554 0.965183 -0.102902 -1.4525e-09 7.05797e-10 1.42649e-09 -10.2786 0.731801 -0.0259123 -1.45249e-09 7.05798e-10 1.42648e-09 -2.22167 -0.733487 0.20892 -2.03217e-16 0.0 -3.88251e-19 -3.67615 -22.6902 -6.9372 -0.0770462 27.9005 0.395813 -1.70992 0.623197 -10.6874 2.03217e-16 0.0 3.88251e-19 -1.33275 -8.69519 -3.97704 -0.0572825 12.2662 -0.244885 0.592745 -4.53792 0.761197
182.874 82.7835 36.8366 -70.9785 -88.5854 76.2677 -1.71774 -1.66927 0.844443 -0.369213 -1.67532 0.188467 -5.26584 3.21877 -2.78949 3.62168 -12.8912 -3.9365 -0.0 0.0 0.0 -0.0 0.0 0.0 1.59651e-13 -9.41212e-13 -1.63636e-13 37.273 7.18558 35.4868 -27.3701 -28.6474 51.0845 -0.20403 -14.3997 -2.05692 2.53675e-09 -2.10065e-10 8.68579e-10 4.36202e-09 -3.62896e-10 1.53473e-09 2.53676e-09 -2.10065e-10 8.68567e-10 7.73091 5.47488 0.417314 2.53675e-09 -2.10068e-10 8.68582e-10 2.90554 0.965183 0.102902 2.53675e-09 -2.10071e-10 8.68581e-10 10.2786 0.731801 0.0259123 2.53674e-09 -2.10069e-10 8.68589e-10 2.22167 -0.733487 -0.20892 1.59669e-13 -9.41212e-13 -1.64063e-13 -46.2102 19.4621 -37.2495 23.0652 -19.3077 -41.5465 0.146199 -12.232 1.73929 -2.06076e-09 9.82615e-10 1.99016e-09 -3.58313e-09 1.70148e-09 3.42627e-09 -2.06076e-09 9.82615e-10 1.99017e-09 -7.73091 5.47488 -0.417314 -2.06076e-09 9.82615e-10 1.99016e-09 -2.90554 0.965183 -0.102902 -2.06077e-09 9.82616e-10 1.99016e-09 -10.2786 0.731801 -0.0259123 -2.06076e-09 9.82616e-10 1.99015e-09 -2.22167 -0.733487 0.20892 -2.03217e-16 0.0 -3.88251e-19 -7.35059 -31.6651 -10.9532 -0.306463 40.896 0.711505 -2.60112 -0.616553 -15.6379 2.03217e-16 0.0 3.88251e-19 -1.79136 -10.7495 -5.87151 -0.0506498 17.0297 -0.377635 0.69819 -7.66718 1.1747
